<?xml version="1.0" standalone="no"?>
<!DOCTYPE svg PUBLIC "-//W3C//DTD SVG 20010904//EN"
 "http://www.w3.org/TR/2001/REC-SVG-20010904/DTD/svg10.dtd">
<svg version="1.0" xmlns="http://www.w3.org/2000/svg"
 width="1045.000000pt" height="1052.000000pt" viewBox="0 0 1045.000000 1052.000000"
 preserveAspectRatio="xMidYMid meet">

<g transform="translate(0.000000,1052.000000) scale(0.100000,-0.100000)"
fill="#000000" stroke="none">
<path d="M5093 10280 c-1125 -57 -2185 -477 -3053 -1209 -153 -130 -435 -409
-557 -553 -706 -829 -1120 -1828 -1213 -2923 -13 -155 -13 -606 0 -771 70
-882 351 -1697 839 -2431 195 -293 353 -487 604 -741 494 -500 1029 -863 1657
-1127 299 -126 722 -252 1032 -309 331 -61 416 -69 845 -73 423 -5 557 1 806
38 1124 165 2151 691 2934 1503 379 393 671 810 909 1301 487 1003 633 2130
415 3215 -154 765 -453 1432 -926 2065 -148 198 -241 304 -448 513 -477 482
-1000 837 -1632 1107 -670 287 -1480 432 -2212 395z m482 -481 c572 -47 962
-131 1400 -299 276 -106 465 -198 714 -348 856 -513 1513 -1284 1887 -2215 24
-60 44 -112 44 -116 0 -4 -71 -34 -157 -66 -152 -55 -475 -175 -969 -359 -127
-47 -236 -86 -241 -86 -6 0 -27 42 -48 93 -62 149 -141 301 -257 492 -37 60
-210 291 -270 359 -95 109 -289 295 -401 384 -469 373 -987 588 -1602 664
-142 17 -526 17 -675 0 -386 -45 -731 -147 -1071 -317 -215 -108 -496 -300
-663 -455 -95 -87 -269 -265 -300 -306 -17 -23 -47 -61 -67 -85 -116 -140
-271 -387 -362 -579 -66 -138 -107 -234 -107 -248 0 -6 -4 -13 -8 -16 -5 -3
-314 98 -688 223 -595 201 -679 231 -676 247 9 49 135 347 214 505 389 785
985 1431 1738 1884 135 81 396 215 537 277 78 33 362 138 468 171 456 145
1141 231 1560 196z m-123 -2464 c3 -232 4 -242 25 -269 13 -16 28 -47 33 -70
26 -99 45 -144 102 -234 124 -197 159 -292 126 -334 -11 -13 -126 -80 -250
-145 -14 -7 -28 -19 -31 -26 -2 -7 -3 -60 -1 -117 2 -58 4 -125 4 -150 1 -25
1 -65 -1 -90 -2 -25 -2 -72 -1 -105 1 -33 0 -172 -2 -310 -2 -137 0 -257 5
-266 5 -10 28 -19 56 -24 153 -22 383 -89 476 -138 64 -34 107 -91 107 -143 0
-41 -63 -130 -189 -266 -225 -246 -348 -418 -416 -583 l-45 -110 0 -557 0
-558 -45 0 -44 0 -1 581 c0 550 -1 583 -19 608 -26 37 -61 108 -61 124 0 25
26 50 53 50 l27 0 2 333 c0 184 1 340 2 346 1 15 -84 33 -117 24 -36 -9 -49
-44 -58 -151 -4 -55 -19 -167 -34 -250 -14 -82 -30 -188 -36 -234 -5 -47 -19
-105 -30 -130 -101 -222 -127 -360 -154 -821 -3 -58 -17 -149 -31 -202 -30
-121 -30 -144 1 -190 29 -42 32 -66 9 -75 -35 -13 -104 84 -130 187 -19 77
-28 96 -61 131 -38 41 -29 88 21 114 27 14 43 31 49 50 12 40 13 235 3 415
-10 173 -2 229 51 343 38 81 38 83 37 202 -1 66 -6 226 -12 355 l-10 235 -36
70 c-64 122 -84 251 -50 318 35 69 118 160 182 201 99 62 129 179 71 272 -43
68 -118 154 -134 154 -39 0 -68 -77 -86 -224 -17 -137 -46 -219 -112 -308 -72
-98 -176 -258 -213 -328 -38 -73 -40 -179 -6 -289 16 -50 20 -77 13 -84 -7 -7
-14 5 -22 36 -6 26 -18 52 -26 59 -13 11 -20 7 -45 -22 -16 -19 -49 -69 -74
-110 l-46 -75 8 60 c4 33 6 85 5 115 -2 45 4 66 33 125 36 71 187 533 186 570
0 16 -8 11 -40 -25 -43 -49 -54 -47 -16 3 20 27 56 99 56 113 0 15 -21 -1 -39
-28 -23 -36 -27 -28 -10 21 19 55 2 45 -29 -18 -25 -51 -118 -181 -128 -181
-2 0 11 30 30 68 38 75 52 122 36 122 -5 0 -10 -4 -10 -9 0 -19 -119 -189
-172 -246 -63 -67 -85 -69 -40 -3 40 59 94 167 89 181 -2 6 -13 -5 -25 -24
-23 -37 -61 -73 -69 -65 -3 2 6 20 20 38 33 44 87 153 87 175 -1 48 -18 40
-68 -31 -29 -40 -67 -86 -84 -102 -36 -33 -30 -20 22 51 44 60 72 113 68 126
-2 5 -22 -19 -45 -53 -45 -69 -102 -129 -89 -93 40 104 65 205 51 205 -3 0
-15 -9 -27 -20 -41 -38 -38 -20 6 38 51 68 91 142 76 142 -6 0 -21 -5 -32 -11
-21 -11 -21 -10 -14 67 9 104 26 161 97 329 121 287 233 435 362 475 57 18
100 6 132 -36 25 -33 31 -36 67 -31 28 4 41 1 45 -9 3 -8 9 -14 14 -14 4 0 22
-13 38 -29 16 -16 35 -31 43 -34 10 -3 7 -15 -12 -50 l-24 -47 39 -41 c22 -22
58 -51 81 -65 l41 -24 159 58 159 59 0 279 c0 153 -1 304 -2 334 -3 86 7 534
12 548 3 9 19 12 45 10 l40 -3 2 -240z m4008 -1907 c49 -25 84 -70 100 -127 5
-20 10 -134 10 -253 l0 -218 -60 0 -60 0 0 38 0 39 -167 6 c-91 4 -192 7 -225
7 l-58 0 0 -45 0 -45 -44 0 c-83 0 -78 -14 -71 224 4 116 11 228 16 248 20 79
121 138 202 118 51 -12 61 -18 82 -50 20 -30 35 -39 35 -21 0 18 54 74 85 87
46 20 105 17 155 -8z m-7951 -88 c151 -25 248 -123 281 -285 15 -72 7 -161
-19 -221 l-20 -44 24 0 c21 0 23 -5 27 -52 3 -29 2 -56 -1 -60 -3 -3 -59 -9
-123 -13 l-118 -7 0 59 c0 55 2 60 30 76 48 29 82 97 83 166 0 69 -19 109 -76
155 -38 30 -42 31 -135 31 -128 0 -176 -25 -222 -114 -38 -76 -13 -181 53
-221 18 -11 35 -20 40 -20 4 0 7 27 7 59 l0 59 55 4 c67 4 62 17 70 -179 l7
-143 -35 0 c-157 0 -270 83 -323 240 -27 80 -25 226 5 301 49 127 156 200 316
218 6 0 39 -4 74 -9z m1839 -37 c3 -32 3 -32 -50 -35 l-53 -3 -3 -82 -3 -83
51 0 51 0 -3 -32 c-3 -32 -5 -33 -50 -36 l-48 -3 0 -90 0 -89 55 0 55 0 0 -35
0 -35 -90 0 -90 0 0 273 c0 151 2 276 4 278 3 2 42 4 88 4 l83 -1 3 -31z m610
-2 c3 -29 1 -31 -32 -31 l-36 0 0 -246 0 -245 -37 3 -38 3 -3 243 -2 242 -35
0 c-32 0 -35 3 -35 28 0 16 2 31 4 33 2 2 51 3 108 2 l103 -1 3 -31z m2504 29
c32 0 48 -52 48 -156 l0 -97 -65 -65 c-62 -62 -65 -67 -65 -113 l0 -49 66 0
65 0 -3 -32 -3 -33 -97 -3 -98 -3 0 102 0 102 65 68 65 67 0 60 c0 57 -15 92
-39 92 -17 0 -31 -26 -31 -57 0 -31 -2 -33 -35 -33 l-35 0 0 53 c0 29 6 61 13
71 14 20 78 37 112 30 11 -2 28 -4 37 -4z m-2822 -20 c15 -15 20 -33 20 -75
l0 -55 -35 0 c-33 0 -35 2 -35 35 0 36 -25 60 -53 49 -17 -6 -27 -64 -19 -112
3 -26 13 -37 46 -54 97 -49 96 -47 96 -163 0 -127 -10 -145 -88 -153 -88 -8
-132 25 -132 98 0 28 2 30 39 30 36 0 40 -3 43 -27 2 -17 10 -29 21 -31 34 -7
47 17 47 82 l0 62 -69 37 c-38 21 -72 44 -75 53 -11 28 -6 185 5 207 18 33 28
37 102 37 54 0 71 -4 87 -20z m3186 12 c29 -19 34 -56 34 -261 0 -133 -4 -219
-11 -234 -14 -32 -49 -47 -105 -47 -55 0 -99 21 -108 52 -11 43 -7 438 5 461
18 33 28 37 104 37 39 0 75 -4 81 -8z m354 -14 c19 -21 20 -34 20 -250 0 -214
-1 -229 -20 -248 -43 -43 -149 -40 -188 5 -23 28 -23 29 -20 250 4 271 1 265
114 265 62 0 76 -3 94 -22z m324 6 c23 -23 29 -54 24 -144 -2 -55 -8 -84 -17
-89 -11 -7 -10 -14 8 -36 18 -23 21 -41 21 -111 0 -46 -5 -94 -11 -108 -14
-30 -55 -46 -118 -46 -64 1 -92 24 -98 83 l-6 47 32 0 c17 0 34 1 39 3 4 1 9
-9 10 -23 5 -35 16 -44 47 -36 25 7 26 8 23 88 -3 78 -4 82 -28 88 -37 9 -41
56 -6 70 25 9 26 13 26 85 l0 75 -30 0 c-27 0 -30 -4 -36 -40 -6 -37 -9 -40
-40 -40 l-34 0 0 53 c0 79 21 97 110 97 49 0 73 -4 84 -16z m-3394 -485 l0
-50 -37 3 c-35 3 -38 6 -41 36 -5 50 3 62 43 62 l35 0 0 -51z m4833 -115 l39
-7 -7 -42 -6 -43 93 -21 c353 -80 363 -84 402 -151 48 -81 16 -260 -60 -335
-55 -56 -97 -63 -223 -37 -118 24 -277 59 -303 68 -13 4 -18 -3 -24 -31 -3
-19 -9 -37 -13 -39 -6 -4 -102 13 -109 19 -1 1 9 53 23 116 35 161 43 190 49
196 3 3 27 1 53 -3 45 -9 48 -11 49 -41 0 -18 2 -35 5 -37 7 -8 356 -86 382
-86 62 0 101 107 55 149 -26 25 -17 22 -208 66 -85 19 -165 37 -177 40 -18 4
-23 -1 -28 -26 -7 -30 -9 -31 -47 -25 -66 11 -78 21 -68 58 5 18 18 77 30 131
18 81 25 97 38 93 10 -3 34 -8 55 -12z m-7067 -340 c14 -49 34 -118 44 -154
10 -36 34 -119 54 -185 19 -66 32 -123 28 -126 -11 -11 -183 -60 -194 -57 -6
2 -19 30 -28 62 l-18 57 25 10 c13 5 30 9 37 9 31 0 33 22 8 108 -13 48 -28
91 -32 95 -10 12 -131 -23 -137 -39 -2 -7 5 -45 16 -84 14 -52 17 -72 8 -75
-71 -26 -97 -33 -100 -27 -2 4 -14 40 -26 80 -12 39 -27 72 -33 72 -30 0 -158
-45 -155 -55 2 -5 15 -50 28 -98 21 -77 26 -88 44 -84 91 21 83 23 94 -19 23
-88 25 -85 -69 -115 -47 -15 -93 -28 -102 -28 -18 -1 -22 9 -88 239 -23 80
-55 187 -70 238 -15 50 -24 94 -19 97 4 3 29 12 54 20 35 10 47 10 50 2 3 -7
9 -24 14 -38 l10 -27 83 24 c243 69 343 101 342 110 -1 5 -5 23 -8 40 -7 31
-6 31 46 46 63 18 58 23 94 -98z m7230 -550 c132 -60 209 -96 212 -99 4 -3
-240 -540 -250 -550 -4 -4 -95 31 -106 40 -2 2 6 21 17 44 26 49 46 34 -199
147 -172 79 -186 83 -198 67 -7 -10 -15 -28 -19 -40 -3 -13 -12 -23 -19 -23
-19 0 -94 38 -94 48 0 9 99 232 130 291 23 45 30 46 93 14 30 -15 33 -27 12
-63 -22 -39 -19 -46 33 -68 26 -11 112 -50 192 -87 80 -37 150 -69 156 -71 10
-5 84 145 84 169 -1 7 -35 27 -76 46 -113 52 -109 47 -80 114 14 31 27 57 29
57 3 0 40 -16 83 -36z m-7023 -86 c19 -35 50 -92 68 -126 l34 -64 -34 -61
c-18 -34 -43 -78 -56 -97 -48 -76 -147 -251 -144 -254 4 -4 229 120 243 134 5
5 2 19 -8 34 -9 14 -16 31 -16 38 0 18 88 64 100 52 11 -11 140 -248 140 -257
0 -4 -22 -18 -50 -32 l-49 -25 -15 27 c-33 61 11 79 -457 -181 -36 -20 -68
-36 -71 -36 -4 0 -23 29 -43 65 l-36 65 145 243 c79 133 143 243 141 246 -2 2
-30 -11 -62 -29 -60 -34 -72 -41 -185 -104 -38 -21 -68 -41 -68 -44 1 -4 7
-18 15 -32 8 -14 14 -30 15 -35 0 -15 -89 -60 -100 -49 -10 10 -140 241 -140
249 0 2 21 16 46 31 l47 28 16 -21 c9 -11 21 -29 27 -39 9 -16 27 -8 198 86
103 56 190 109 193 116 3 8 -2 25 -11 39 -9 13 -16 29 -16 34 0 8 75 54 97 61
1 0 17 -28 36 -62z m6400 -486 c53 -39 84 -68 80 -75 -3 -7 -19 -28 -34 -48
-27 -34 -29 -35 -86 -32 -80 5 -127 -22 -166 -97 -36 -69 -33 -128 12 -193
105 -153 296 -169 372 -32 32 55 30 119 -4 185 -15 29 -26 54 -25 55 2 1 29
16 61 34 68 37 74 35 105 -37 59 -138 24 -272 -106 -406 -75 -77 -130 -101
-232 -101 -72 0 -94 4 -143 27 -118 55 -209 174 -223 290 -16 133 84 310 204
363 39 17 41 20 26 36 -15 17 -14 21 16 63 19 26 38 42 44 39 6 -4 50 -36 99
-71z m-5916 -290 c48 -54 120 -133 158 -177 39 -44 89 -100 113 -126 23 -25
42 -52 41 -60 -1 -15 -182 -180 -196 -178 -4 0 -24 19 -43 41 l-35 41 59 53
59 53 -29 35 c-16 19 -33 35 -37 35 -5 1 -82 -65 -173 -145 l-164 -146 31 -40
32 -39 -34 -35 c-18 -19 -39 -34 -46 -34 -12 0 -244 251 -252 272 -4 11 58 78
73 78 6 0 25 -14 42 -31 38 -37 31 -40 155 71 167 150 204 183 208 186 5 4
-50 74 -59 74 -4 0 -33 -23 -65 -51 -32 -28 -60 -47 -64 -42 -3 4 -21 24 -39
44 l-33 36 100 92 c56 50 103 91 105 91 2 0 44 -44 93 -98z m596 -576 c64 -48
117 -90 117 -94 0 -4 -15 -25 -33 -46 l-33 -39 -41 24 -42 24 -23 -30 c-22
-28 -101 -136 -194 -263 -26 -35 -42 -67 -38 -72 29 -26 138 -100 148 -100 6
0 36 34 66 75 30 41 60 75 65 75 6 0 32 -16 58 -36 34 -24 46 -39 39 -47 -5
-7 -48 -65 -95 -129 -48 -65 -90 -118 -94 -118 -7 0 -90 60 -187 133 -16 12
-91 68 -167 123 -153 112 -148 102 -86 171 l20 22 34 -24 c20 -13 40 -21 47
-19 6 3 34 37 61 75 28 39 82 114 122 167 67 90 84 121 66 122 -5 1 -21 11
-37 24 l-29 24 38 46 38 46 31 -23 c17 -13 84 -63 149 -111z m4455 -69 l52
-75 -39 -31 c-43 -35 -57 -37 -85 -16 -23 17 -79 20 -107 4 -44 -23 -40 -93 6
-105 12 -3 62 2 111 10 49 9 109 16 134 16 113 -1 210 -98 210 -212 0 -100
-85 -188 -182 -188 -45 0 -48 -1 -38 -19 14 -28 14 -28 -31 -61 -28 -20 -46
-27 -53 -21 -17 14 -130 181 -125 184 2 2 21 15 41 30 20 15 39 27 43 27 3 0
23 -11 43 -25 48 -33 95 -33 127 0 32 31 32 69 -1 102 -24 24 -30 25 -87 19
-178 -18 -231 -18 -267 1 -19 10 -48 38 -65 61 -26 38 -30 52 -30 111 0 59 4
72 29 105 32 43 106 80 143 73 21 -4 24 -2 19 18 -5 19 2 29 36 54 26 20 45
27 52 22 6 -5 35 -43 64 -84z m-3986 -246 c34 -16 99 -45 143 -66 44 -20 134
-62 200 -92 66 -30 124 -59 129 -64 7 -6 -61 -177 -79 -197 -6 -6 -115 48
-115 57 0 5 7 25 16 46 8 20 14 38 12 40 -9 8 -169 85 -176 85 -9 0 -67 -116
-67 -133 0 -4 32 -22 70 -39 39 -18 72 -33 74 -35 6 -4 -41 -103 -49 -103 -4
0 -37 14 -73 30 -37 17 -69 30 -72 30 -6 0 -75 -136 -75 -148 0 -9 180 -96
185 -90 1 2 12 22 24 46 l21 42 60 -30 c51 -26 58 -33 50 -48 -5 -9 -25 -52
-44 -94 -19 -43 -39 -78 -45 -78 -5 0 -51 20 -103 44 -198 93 -395 184 -416
190 -27 9 -27 14 0 71 19 38 26 45 43 40 62 -20 57 -25 120 112 32 70 73 159
92 197 18 38 33 71 33 72 0 2 -15 11 -32 20 -18 9 -34 18 -36 19 -4 3 39 105
43 105 2 0 32 -13 67 -29z m3378 -31 c29 -15 40 -42 66 -159 28 -123 29 -131
11 -131 -17 0 -165 164 -178 197 -25 66 40 126 101 93z m-254 -181 c16 -51 12
-69 -14 -69 -10 0 -26 -6 -36 -13 -18 -13 -17 -20 23 -153 23 -76 53 -175 66
-219 13 -44 31 -101 39 -128 l14 -47 -26 -14 c-15 -7 -49 -18 -76 -25 l-49
-12 -61 58 c-34 33 -95 91 -136 129 -41 39 -105 99 -143 134 -37 35 -69 61
-71 59 -3 -2 19 -81 48 -174 50 -163 53 -170 77 -166 58 10 61 8 76 -43 8 -26
12 -50 9 -53 -6 -6 -257 -83 -272 -83 -5 0 -18 23 -27 51 l-16 51 40 16 c49
19 51 6 -28 260 l-57 184 -30 -7 c-58 -13 -59 -12 -74 39 -7 26 -10 52 -5 56
9 9 239 80 257 80 12 0 23 -10 212 -181 75 -68 139 -125 144 -127 5 -2 -7 48
-26 110 -19 62 -37 124 -40 136 -6 21 -11 23 -38 17 -56 -12 -58 -11 -72 35
-8 25 -14 50 -14 56 0 6 26 18 58 27 31 8 93 26 137 40 44 14 84 25 89 23 5
-1 15 -22 22 -47z m-2371 -99 c66 -11 127 -23 136 -26 12 -3 24 -48 49 -192
18 -103 36 -195 39 -205 5 -13 34 28 111 155 57 95 108 176 113 179 5 3 48 -2
95 -12 48 -9 122 -23 165 -29 85 -14 84 -13 71 -93 -7 -38 -7 -38 -52 -35
l-45 3 -23 -125 c-63 -337 -63 -320 -1 -320 l29 0 -7 -52 c-4 -29 -10 -57 -15
-61 -4 -4 -82 6 -174 24 -141 27 -166 34 -162 48 3 9 8 33 12 54 6 38 7 38 48
35 l41 -3 37 195 c20 107 37 206 37 220 l0 25 -17 -21 c-9 -11 -80 -127 -157
-257 -124 -209 -143 -236 -166 -237 -50 0 -54 12 -103 290 -59 333 -56 320
-65 320 -7 0 -82 -390 -81 -427 0 -19 5 -23 34 -23 19 0 37 -3 40 -8 5 -8 -11
-102 -19 -110 -5 -5 -241 36 -265 46 -13 6 -14 16 -7 61 l9 53 43 -6 c36 -4
45 -2 49 12 18 62 76 416 69 423 -4 4 -21 9 -38 11 -29 3 -30 5 -27 48 4 67 8
73 45 67 17 -3 86 -15 152 -27z m1425 -150 l0 -60 -40 0 c-22 0 -40 -4 -40 -9
0 -5 36 -99 80 -210 44 -110 80 -205 80 -211 0 -5 20 -10 45 -10 42 0 44 -1
50 -34 15 -76 10 -80 -90 -88 -49 -3 -124 -8 -165 -10 l-75 -3 -3 57 -3 57 38
3 c42 3 44 12 18 76 l-14 32 -86 0 c-95 0 -94 1 -109 -82 l-7 -38 45 0 44 0 4
-56 c1 -31 1 -57 -2 -59 -3 -2 -71 -6 -152 -10 l-148 -8 -1 42 c-1 22 -2 46
-3 53 -1 7 17 16 39 21 22 6 41 10 42 11 9 7 96 427 91 440 -2 5 -21 10 -42
10 l-40 1 -4 58 -4 57 39 1 c21 1 112 7 203 14 91 6 175 13 188 14 20 1 22 -3
22 -59z"/>
<path d="M4949 9533 c-37 -3 -62 -10 -72 -21 -9 -10 -25 -85 -41 -187 -15 -93
-47 -293 -72 -443 -24 -151 -41 -278 -38 -284 9 -14 185 -1 201 15 7 7 15 45
19 85 5 53 12 75 24 82 16 9 167 17 174 9 1 -2 11 -34 20 -71 10 -37 24 -72
32 -79 18 -15 179 -8 195 8 13 13 -9 85 -211 692 l-65 196 -55 1 c-30 0 -80
-1 -111 -3z m110 -428 c26 -98 35 -148 27 -150 -6 -2 -32 -5 -58 -8 l-48 -5 0
36 c0 42 20 250 26 271 8 25 15 6 53 -144z"/>
<path d="M5671 9521 c-6 -10 -12 -49 -13 -87 l-3 -69 87 -15 c47 -8 89 -18 93
-21 3 -4 2 -33 -4 -65 -6 -33 -17 -108 -25 -169 -8 -60 -26 -190 -40 -287 -14
-97 -23 -183 -20 -191 4 -10 33 -19 90 -28 72 -10 87 -10 98 2 8 8 32 153 62
362 l48 348 97 -7 97 -6 5 28 c16 83 18 131 5 141 -12 10 -496 83 -546 83 -12
0 -26 -8 -31 -19z"/>
<path d="M4131 9385 c-18 -8 -56 -21 -85 -29 -170 -47 -222 -67 -248 -96 -16
-17 -28 -42 -28 -57 0 -27 89 -321 116 -382 l15 -34 92 7 c51 3 129 9 174 12
l82 6 15 -53 c28 -96 27 -101 -23 -116 -24 -7 -52 -15 -61 -18 -15 -5 -22 4
-35 45 -9 27 -21 52 -26 56 -22 13 -159 -107 -159 -140 0 -12 9 -50 21 -85 34
-99 72 -113 204 -71 269 85 291 93 313 116 13 15 22 38 22 56 0 17 -23 103
-51 192 -28 88 -54 172 -58 186 -7 24 -10 25 -97 25 -49 0 -129 -2 -178 -5
l-89 -5 -17 50 c-35 104 -36 101 19 119 71 23 76 21 92 -31 17 -60 40 -65 89
-22 104 92 102 89 94 122 -3 18 -15 56 -26 85 -29 77 -88 101 -167 67z"/>
<path d="M6614 9352 c-6 -4 -46 -115 -88 -247 -43 -132 -102 -315 -132 -408
-30 -92 -54 -178 -54 -191 0 -22 9 -27 80 -51 45 -15 87 -25 94 -22 8 3 30 54
49 114 200 614 236 733 231 746 -3 9 -40 27 -82 41 -86 29 -83 28 -98 18z"/>
<path d="M7179 9097 c-15 -12 -64 -92 -109 -177 -87 -163 -96 -179 -206 -380
-74 -136 -84 -181 -49 -219 10 -12 102 -66 205 -121 188 -101 222 -112 272
-90 26 12 27 14 168 275 56 105 120 223 142 263 85 157 90 169 83 199 -8 36
-32 65 -70 84 -95 49 -321 172 -329 180 -19 17 -80 10 -107 -14z m196 -248
c59 -32 72 -44 67 -57 -8 -18 -38 -76 -99 -187 -21 -39 -63 -117 -93 -173 -30
-56 -61 -102 -69 -102 -11 0 -131 61 -149 76 -3 1 217 412 255 477 6 11 8 10
88 -34z"/>
<path d="M3221 9017 c-36 -23 -66 -47 -68 -52 -2 -6 53 -104 122 -219 69 -115
124 -211 121 -213 -2 -3 -78 48 -168 113 -269 194 -274 197 -300 190 -42 -11
-148 -85 -148 -103 0 -10 95 -176 211 -368 231 -383 245 -405 261 -405 17 0
146 84 153 99 3 8 -49 104 -121 223 -69 115 -125 211 -123 213 3 2 101 -66
219 -151 130 -93 224 -154 238 -154 37 0 162 79 162 102 0 10 -26 63 -59 116
-108 179 -367 607 -382 630 -20 32 -46 28 -118 -21z"/>
<path d="M8060 8543 c-58 -65 -232 -255 -291 -318 -31 -33 -79 -85 -105 -115
-27 -30 -75 -83 -106 -117 -32 -34 -58 -69 -58 -77 0 -17 119 -126 138 -126
14 0 14 0 152 150 166 181 202 217 197 195 -3 -11 -40 -119 -83 -240 -42 -121
-79 -234 -81 -250 -4 -26 3 -38 56 -88 45 -43 67 -57 84 -55 23 3 81 63 427
443 85 94 161 176 167 183 7 7 13 21 13 31 0 21 -112 131 -133 131 -7 0 -87
-81 -177 -180 -90 -99 -167 -180 -170 -180 -4 0 24 89 62 198 101 289 109 314
103 332 -8 24 -121 120 -143 120 -10 0 -34 -17 -52 -37z"/>
<path d="M5296 8474 c-9 -8 -16 -19 -16 -23 0 -15 25 -31 51 -31 32 0 45 32
22 55 -19 19 -38 19 -57 -1z"/>
<path d="M4874 8446 c-10 -27 1 -51 25 -54 31 -5 45 11 37 42 -5 19 -13 26
-32 26 -13 0 -27 -6 -30 -14z"/>
<path d="M5720 8441 c-15 -29 -2 -51 30 -51 16 0 30 7 34 16 9 22 -11 54 -34
54 -11 0 -24 -9 -30 -19z"/>
<path d="M2236 8289 c-91 -89 -166 -169 -166 -178 1 -17 65 -86 402 -429 120
-123 225 -222 232 -220 20 4 356 333 356 348 0 17 -101 120 -118 120 -8 0 -62
-46 -119 -102 l-104 -102 -67 67 -67 67 73 73 c40 40 72 81 72 92 0 23 -78
105 -100 105 -8 0 -48 -31 -88 -70 -41 -39 -78 -67 -85 -63 -6 3 -37 32 -66
65 l-55 59 102 102 c56 56 102 109 102 118 0 22 -92 109 -116 109 -14 0 -81
-58 -188 -161z"/>
<path d="M4454 8366 c-12 -31 0 -51 30 -51 36 0 56 26 37 49 -17 20 -60 21
-67 2z"/>
<path d="M6129 8364 c-17 -20 -1 -48 31 -52 30 -5 44 11 36 42 -7 30 -45 36
-67 10z"/>
<path d="M4060 8236 c-20 -25 -8 -61 21 -64 36 -4 55 21 41 53 -13 28 -43 33
-62 11z"/>
<path d="M6536 8234 c-31 -30 -8 -69 36 -62 17 2 24 11 26 32 5 43 -32 61 -62
30z"/>
<path d="M3682 8048 c-32 -32 7 -80 43 -54 13 9 16 20 11 39 -7 29 -33 36 -54
15z"/>
<path d="M6916 8045 c-14 -38 -7 -55 24 -55 34 0 49 23 33 49 -14 22 -49 26
-57 6z"/>
<path d="M3327 7814 c-12 -12 -8 -51 7 -63 26 -22 75 19 57 47 -8 14 -54 25
-64 16z"/>
<path d="M7272 7808 c-18 -18 -15 -35 10 -52 26 -19 48 -5 48 29 0 32 -35 46
-58 23z"/>
<path d="M8666 7658 c-92 -61 -171 -119 -176 -128 -6 -11 7 -60 46 -164 30
-81 54 -153 54 -160 0 -13 -99 -86 -117 -86 -10 0 -83 91 -83 103 0 3 20 18
45 34 25 15 45 35 45 43 0 18 -138 110 -165 110 -27 0 -132 -71 -144 -98 -24
-52 -14 -78 95 -240 127 -189 128 -190 169 -198 40 -7 46 -4 215 109 144 96
180 124 180 142 0 6 -25 75 -55 154 -30 79 -55 149 -55 156 0 7 28 30 63 53
70 46 71 46 116 -30 l22 -37 -46 -31 c-46 -32 -50 -37 -37 -56 15 -22 136 -96
157 -96 27 0 140 74 149 97 19 50 6 81 -103 244 -60 90 -120 170 -133 177 -46
26 -71 16 -242 -98z"/>
<path d="M1747 7719 c-10 -6 -67 -85 -127 -176 -118 -178 -131 -216 -92 -262
23 -28 333 -231 352 -231 16 1 59 38 176 151 39 38 78 69 87 69 12 0 107 -57
126 -76 4 -4 -66 -114 -74 -114 -2 0 -21 11 -41 25 -53 36 -72 33 -79 -12 -4
-21 -11 -54 -16 -73 -20 -79 -15 -91 58 -138 118 -74 133 -67 272 145 95 144
111 174 111 209 0 22 -6 48 -12 57 -22 28 -331 227 -354 227 -13 0 -60 -37
-124 -97 -145 -139 -134 -134 -208 -84 -34 23 -62 45 -62 49 0 4 16 29 36 55
39 54 27 54 110 1 14 -10 29 -13 34 -8 9 10 40 153 40 185 0 12 -24 35 -67 64
-69 46 -109 55 -146 34z"/>
<path d="M3006 7528 c-20 -28 -4 -58 29 -58 37 0 51 34 25 60 -25 25 -35 25
-54 -2z"/>
<path d="M7586 7528 c-21 -30 -4 -60 32 -56 30 3 42 39 22 64 -17 20 -36 17
-54 -8z"/>
<path d="M2728 7205 c-13 -29 3 -55 34 -55 23 0 32 22 24 55 -8 33 -43 33 -58
0z"/>
<path d="M7870 7216 c-20 -25 -9 -61 19 -61 36 0 50 29 27 54 -23 25 -30 26
-46 7z"/>
<path d="M2486 6855 c-8 -21 11 -65 28 -65 18 0 46 27 46 44 0 33 -62 51 -74
21z"/>
<path d="M8102 6858 c-7 -7 -12 -17 -12 -23 0 -15 33 -45 49 -45 15 0 30 39
23 62 -5 21 -42 24 -60 6z"/>
<path d="M2313 6483 c-16 -6 -17 -49 -2 -58 19 -12 59 4 59 25 0 16 -29 43
-42 39 -2 0 -9 -3 -15 -6z"/>
<path d="M8298 6479 c-27 -15 -22 -47 6 -55 14 -3 30 -3 35 1 15 8 14 38 -1
53 -14 14 -18 14 -40 1z"/>
<path d="M5400 7540 c0 -5 5 -10 10 -10 6 0 10 5 10 10 0 6 -4 10 -10 10 -5 0
-10 -4 -10 -10z"/>
<path d="M5455 6851 c-9 -16 -4 -391 6 -397 16 -9 124 40 127 59 3 17 -79 293
-97 326 -10 19 -28 25 -36 12z"/>
<path d="M5290 6217 c-19 -7 -36 -19 -38 -28 -5 -25 30 -57 71 -65 l37 -6 0
56 c0 62 -5 65 -70 43z"/>
<path d="M4162 5896 c-35 -59 -42 -87 -17 -66 31 26 77 120 58 120 -5 0 -23
-24 -41 -54z"/>
<path d="M5320 5338 c-17 -34 -30 -65 -30 -70 0 -5 15 -15 33 -23 31 -13 32
-13 38 13 11 45 10 142 -1 142 -6 0 -24 -28 -40 -62z"/>
<path d="M5456 4854 c-12 -61 -4 -515 8 -511 6 2 32 51 57 108 136 303 129
291 197 356 36 34 61 66 58 72 -5 7 -61 11 -160 11 l-154 0 -6 -36z"/>
<path d="M5400 2890 c0 -5 5 -10 10 -10 6 0 10 5 10 10 0 6 -4 10 -10 10 -5 0
-10 -4 -10 -10z"/>
<path d="M9307 5246 c-19 -15 -43 -115 -34 -140 5 -13 24 -16 90 -16 84 0 85
0 90 28 8 40 -8 114 -29 129 -23 17 -94 16 -117 -1z"/>
<path d="M9050 5244 c-24 -7 -38 -37 -46 -93 l-7 -51 82 0 81 0 0 34 c0 84
-44 128 -110 110z"/>
<path d="M6722 5262 c-9 -7 -12 -55 -10 -208 l3 -199 30 0 c40 0 43 16 44 217
1 139 -2 169 -15 182 -17 18 -32 20 -52 8z"/>
<path d="M7062 5262 c-9 -7 -12 -55 -10 -208 l3 -199 29 -3 c16 -2 32 2 37 10
5 7 9 97 9 200 0 175 -1 188 -19 198 -23 12 -32 12 -49 2z"/>
<path d="M5565 1413 c-9 -43 -19 -86 -22 -95 -4 -15 3 -18 46 -18 27 0 52 4
55 9 6 8 -45 165 -56 177 -4 3 -14 -30 -23 -73z"/>
</g>
</svg>
